<mxfile host="Electron" modified="2023-12-20T13:42:03.223Z" agent="Mozilla/5.0 (Windows NT 10.0; Win64; x64) AppleWebKit/537.36 (KHTML, like Gecko) draw.io/22.1.2 Chrome/114.0.5735.289 Electron/25.9.4 Safari/537.36" etag="doZW7Q9s4_xZ2K8SNxx6" version="22.1.2" type="device">
  <diagram name="Page-1" id="Yk8xZrieWkyB17zeY9NR">
    <mxGraphModel dx="2117" dy="1790" grid="1" gridSize="10" guides="1" tooltips="1" connect="1" arrows="1" fold="1" page="1" pageScale="1" pageWidth="827" pageHeight="1169" math="0" shadow="0">
      <root>
        <mxCell id="0" />
        <mxCell id="1" parent="0" />
        <mxCell id="UIc3vDAw5HL-iOA0IhkN-1" value="&lt;p style=&quot;margin:0px;margin-top:4px;text-align:center;&quot;&gt;&lt;b&gt;JSONReader&lt;/b&gt;&lt;/p&gt;&lt;hr size=&quot;1&quot;/&gt;&lt;p style=&quot;margin:0 0 0 4px;line-height:1.6;&quot;&gt;+ JSONReader(): &lt;/p&gt;&lt;hr size=&quot;1&quot;/&gt;&lt;p style=&quot;margin:0 0 0 4px;line-height:1.6;&quot;&gt;+ readCourses(): void&lt;br/&gt;+ readLecturers(): void&lt;br/&gt;+ readLabSections(): void&lt;br/&gt;+ start(Department): void&lt;br/&gt;+ readRequests(): void&lt;br/&gt;+ readDepartments(University): void&lt;br/&gt;+ readAdvisors(): void&lt;br/&gt;+ readStudents(): void&lt;br/&gt;+ readAssistants(): void&lt;br/&gt;+ readTranscript(Student): void&lt;br/&gt;+ syncObjects(): void&lt;br/&gt;+ readJson(): void&lt;/p&gt;" style="verticalAlign=top;align=left;overflow=fill;fontSize=14;fontFamily=Helvetica;html=1;rounded=0;shadow=0;comic=0;labelBackgroundColor=none;strokeWidth=1;" vertex="1" parent="1">
          <mxGeometry x="-57" y="-175" width="260" height="345" as="geometry" />
        </mxCell>
      </root>
    </mxGraphModel>
  </diagram>
</mxfile>
